<svg xmlns="http://www.w3.org/2000/svg" viewBox="0 0 30.18 45.05"><defs><style>.cls-1{fill:#ddd;}.cls-2{fill:#767676;}.cls-3{fill:#003d7e;}</style></defs><g id="レイヤー_2" data-name="レイヤー 2"><g id="レイヤー_1-2" data-name="レイヤー 1"><g id="グループ_7049" data-name="グループ 7049"><g id="グループ_7048" data-name="グループ 7048"><path id="パス_53839" data-name="パス 53839" class="cls-1" d="M15.09,15.24V42.4L6.68,32.78,2.91,28.46a4.57,4.57,0,0,1-1.06-3V4.5A2.59,2.59,0,0,1,3.41,2a1.85,1.85,0,0,1,.66-.13,2,2,0,0,1,1.49.74L6.83,4.05,14,12.29A4.53,4.53,0,0,1,15.09,15.24Z"/><path id="パス_53840" data-name="パス 53840" class="cls-2" d="M28.33,4.51v21a4.53,4.53,0,0,1-1.06,2.95L23.5,32.78,15.09,42.4V15.24a4.53,4.53,0,0,1,1.06-3L22,5.63l2.66-3a2,2,0,0,1,1.49-.74,1.84,1.84,0,0,1,.66.12A2.62,2.62,0,0,1,28.33,4.51Z"/><path id="パス_53841" data-name="パス 53841" class="cls-3" d="M29.39,1.82a4.09,4.09,0,0,0-2-1.58A3.69,3.69,0,0,0,25.24.11a3.85,3.85,0,0,0-2,1.26L19.5,5.63l-4.41,5.06h0L9.29,4.05,7,1.37a3.89,3.89,0,0,0-2-1.26A3.69,3.69,0,0,0,2.76.24a4.09,4.09,0,0,0-2,1.58A4.76,4.76,0,0,0,0,4.51v21a6.6,6.6,0,0,0,.39,2.24,6.05,6.05,0,0,0,1.13,1.93L6.68,35.6l8,9.11a1.34,1.34,0,0,0,.44.34h0a1.34,1.34,0,0,0,.44-.34l3.46-4L23.5,35.6l5.16-5.92a6.05,6.05,0,0,0,1.13-1.93,6.6,6.6,0,0,0,.39-2.24v-21A4.76,4.76,0,0,0,29.39,1.82ZM28.33,25.5a4.57,4.57,0,0,1-1.06,3L23.5,32.78,15.09,42.4l-8.4-9.62L2.91,28.46a4.57,4.57,0,0,1-1.06-3V4.5A2.59,2.59,0,0,1,3.41,2a1.84,1.84,0,0,1,.66-.12,2,2,0,0,1,1.49.73L6.83,4,14,12.28a4.52,4.52,0,0,1,1.06,3,4.57,4.57,0,0,1,1.06-3L22,5.63l2.66-3a2,2,0,0,1,1.49-.73,1.84,1.84,0,0,1,.66.12A2.58,2.58,0,0,1,28.33,4.5Z"/></g><rect id="長方形_9293" data-name="長方形 9293" class="cls-3" x="14.66" y="11.8" width="0.86" height="32.25"/></g></g></g></svg>