<svg xmlns="http://www.w3.org/2000/svg" viewBox="0 0 36 36"><defs><style>.cls-1{fill:none;}.cls-2{fill:#003d7e;}</style></defs><g id="レイヤー_2" data-name="レイヤー 2"><g id="レイヤー_1-2" data-name="レイヤー 1"><g id="_125_arr_hoso" data-name=" 125 arr hoso"><rect id="長方形_9293" data-name="長方形 9293" class="cls-1" width="36" height="36"/><path class="cls-2" d="M27.29,16.43a1,1,0,0,1-1-1V9.71H20.57a1,1,0,1,1,0-2h6.72a1,1,0,0,1,1,1v6.72A1,1,0,0,1,27.29,16.43Z"/><path class="cls-2" d="M24.3,26.13H10.87a1,1,0,0,1-1-1V11.7a1,1,0,0,1,1-1h6a1,1,0,0,1,0,2h-5V24.13H23.3v-5a1,1,0,0,1,2,0v6A1,1,0,0,1,24.3,26.13Z"/><path class="cls-2" d="M18,19a1,1,0,0,1-.71-.29,1,1,0,0,1,0-1.42l8-8a1,1,0,0,1,1.42,1.42l-8,8A1,1,0,0,1,18,19Z"/></g></g></g></svg>