<svg xmlns="http://www.w3.org/2000/svg" width="158.329" height="58.644" viewBox="0 0 158.329 58.644">
  <g id="グループ_6607" data-name="グループ 6607" transform="translate(-0.799 -19.748)">
    <path id="パス_53846" data-name="パス 53846" d="M27.459.972c14.013,0,24.3-10.611,24.3-29.322s-10.287-29.322-24.3-29.322c-13.932,0-24.3,10.611-24.3,29.322S13.527.972,27.459.972Zm0-11.1c-6.48,0-11.016-5.346-11.016-18.225s4.536-18.225,11.016-18.225c6.561,0,11.1,5.346,11.1,18.225S34.02-10.125,27.459-10.125ZM114.129-22.6H104.9V-33.21H92.5V-22.6H77.274L102.06-56.7H88.29L61.56-20.736v8.829H92.1V0h12.8V-11.907h9.234Z" transform="translate(44.999 77.419)" fill="#003d7e"/>
    <g id="グループ_6291" data-name="グループ 6291" transform="translate(-0.001 20.483)">
      <path id="パス_53845" data-name="パス 53845" d="M-38.112-8.736a3.345,3.345,0,0,0-2.7,1.12v-.992H-43.2V3.1h2.5V-.912A3.342,3.342,0,0,0-38.112.128,4.181,4.181,0,0,0-33.824-4.3,4.181,4.181,0,0,0-38.112-8.736Zm-.432,6.816A2.172,2.172,0,0,1-40.736-4.3a2.172,2.172,0,0,1,2.192-2.384A2.172,2.172,0,0,1-36.352-4.3,2.172,2.172,0,0,1-38.544-1.92ZM-28.064.128A4.418,4.418,0,0,0-23.344-4.3a4.418,4.418,0,0,0-4.72-4.432A4.431,4.431,0,0,0-32.8-4.3,4.431,4.431,0,0,0-28.064.128Zm0-2.048A2.184,2.184,0,0,1-30.272-4.3a2.184,2.184,0,0,1,2.208-2.384A2.172,2.172,0,0,1-25.872-4.3,2.172,2.172,0,0,1-28.064-1.92Zm7.632-7.888a1.435,1.435,0,0,0,1.552-1.44,1.4,1.4,0,0,0-1.552-1.344A1.427,1.427,0,0,0-21.984-11.2,1.427,1.427,0,0,0-20.432-9.808ZM-21.68,0h2.5V-8.608h-2.5Zm10.048-8.736A3.769,3.769,0,0,0-14.48-7.6V-8.608h-2.384V0h2.5V-4.256c0-1.584.864-2.32,2.064-2.32,1.1,0,1.744.64,1.744,2.032V0h2.5V-4.928C-8.064-7.552-9.6-8.736-11.632-8.736Zm10.7,6.56a1.682,1.682,0,0,1-1.008.32A1,1,0,0,1-3.008-2.992V-6.5H-.864v-1.92H-3.008v-2.1H-5.5v2.1H-6.832V-6.5H-5.5V-2.96C-5.5-.912-4.32.128-2.288.128A3.567,3.567,0,0,0-.256-.416Z" transform="translate(44 14.936)" fill="#003d7e"/>
      <line id="線_20" data-name="線 20" x1="44" transform="translate(1 23.936)" fill="none" stroke="#003d7e" stroke-width="3"/>
    </g>
  </g>
</svg>
