<svg xmlns="http://www.w3.org/2000/svg" width="1000.999" height="220" viewBox="0 0 1000.999 220">
  <g id="グループ_7065" data-name="グループ 7065" transform="translate(-183 -1281)">
    <path id="パス_9032" data-name="パス 9032" d="M40-2H381a30,30,0,0,1,30,30V188a30,30,0,0,1-30,30H40a30,30,0,0,1-30-30V28A30,30,0,0,1,40-2Z" transform="translate(363 1283)" fill="#36b5ff" opacity="0.312"/>
    <g id="グループ_5583" data-name="グループ 5583" transform="translate(0 -124)">
      <g id="楕円形_18" data-name="楕円形 18" transform="translate(183 1422)" fill="#fff" stroke="#295c9b" stroke-width="2">
        <circle cx="74" cy="74" r="74" stroke="none"/>
        <circle cx="74" cy="74" r="73" fill="none"/>
      </g>
      <path id="パス_53848" data-name="パス 53848" d="M8.61-9.051l-2.394.609v-3H8.589V-13.8H6.216v-3.969H3.675V-13.8H.966v2.352H3.675v3.612c-1.071.273-2.1.5-2.94.672l.693,2.478L3.675-5.25v4.158c0,.315-.105.42-.4.42-.273,0-1.155,0-2-.042a8.677,8.677,0,0,1,.735,2.352A6.907,6.907,0,0,0,5.25,1.176C5.964.8,6.216.168,6.216-1.071V-5.943c.9-.231,1.806-.483,2.709-.735Zm11.676-7.14H8.925v2.5h5.313v12.2c0,.4-.168.525-.588.525s-1.995.021-3.3-.063A9.484,9.484,0,0,1,11.34,1.7a10.692,10.692,0,0,0,4.305-.5c.966-.441,1.3-1.176,1.3-2.646V-13.692h3.339Zm10.227-.546-2.982-.126a9.523,9.523,0,0,1-.105,2.121c-.042.252-.084.546-.126.861a30.014,30.014,0,0,1-4.116-.4v2.6c1.071.1,2.31.168,3.633.189a33.6,33.6,0,0,1-2.394,7.056l2.478.882a7.761,7.761,0,0,1,.588-.924A7.267,7.267,0,0,1,33.306-6.93c2.058,0,3.129,1.05,3.129,2.31,0,3.087-4.641,3.654-9.24,2.9L27.93.987C34.713,1.722,39.27.021,39.27-4.7c0-2.688-2.247-4.494-5.649-4.494a10.233,10.233,0,0,0-5.208,1.323c.315-1.029.651-2.373.945-3.654,2.814-.147,6.153-.546,8.337-.9l-.042-2.5a51.419,51.419,0,0,1-7.77.987c.042-.231.084-.462.126-.651C30.156-15.288,30.282-16,30.513-16.737ZM56.679-4.557v3.423h-8.3V-4.557Zm-10.752,6.4h2.457V1.071h8.3v.777h2.562v-8.61H45.927Zm2.331-12.894a21.457,21.457,0,0,0,4.179-4.263,23,23,0,0,0,4.305,4.263Zm2.772-6.72a22.232,22.232,0,0,1-8.547,7.476,10.2,10.2,0,0,1,1.575,2.037,29.259,29.259,0,0,0,3.255-2.058v1.47H57.771V-10.29A25.189,25.189,0,0,0,60.984-8.3,12.207,12.207,0,0,1,62.6-10.542a21.1,21.1,0,0,1-8.988-7.224Zm17.682,2.625c0,.231-.042.819-.084,1.617-.9.126-1.827.231-2.436.273a18.044,18.044,0,0,1-1.827.021l.273,2.688c1.176-.168,2.793-.378,3.822-.5-.021.5-.063,1.008-.1,1.491-1.2,1.764-3.3,4.536-4.494,6.006L65.52-1.26c.735-.987,1.764-2.52,2.646-3.843-.021,1.764-.042,2.982-.084,4.62,0,.336-.021,1.092-.063,1.554h2.9c-.063-.483-.126-1.239-.147-1.617-.126-1.974-.126-3.738-.126-5.46,0-.546.021-1.155.042-1.764a8.83,8.83,0,0,1,5.943-2.688,3.229,3.229,0,0,1,3.423,3.15c.021,3.276-2.625,4.788-6.321,5.334L74.991.567C80.2-.462,82.866-3,82.866-7.245a5.573,5.573,0,0,0-5.8-5.67A10.313,10.313,0,0,0,70.9-10.752c.021-.189.021-.4.042-.588.357-.546.777-1.239,1.071-1.617l-.777-.987c.168-1.323.336-2.394.462-2.982l-3.066-.1A11.594,11.594,0,0,1,68.712-15.141Zm31.353-1.344H97.251a17.665,17.665,0,0,1,.147,1.932v2.373c-1.911.168-3.948.357-5.733.525,0-.819.021-1.533.021-2.016a13.911,13.911,0,0,1,.126-2.184H88.851a16.22,16.22,0,0,1,.168,2.331V-11.4c-.672.063-1.218.105-1.6.147-1.071.105-2.037.147-2.646.147l.294,2.688c.546-.084,1.848-.294,2.52-.378.357-.042.84-.084,1.407-.147,0,1.953,0,3.99.021,4.893C89.124-.42,89.775.714,95.214.714A59.407,59.407,0,0,0,101.2.378l.105-2.856a42.309,42.309,0,0,1-6.279.525c-3.15,0-3.339-.462-3.381-2.52-.042-.9-.021-2.835,0-4.767,1.785-.189,3.843-.378,5.712-.525a23.139,23.139,0,0,1-.168,2.541c-.042.4-.231.483-.651.483A11.126,11.126,0,0,1,94.6-7.014l-.063,2.331a31.784,31.784,0,0,0,3.171.315c1.071,0,1.6-.273,1.827-1.386a36.841,36.841,0,0,0,.315-4.2c.609-.042,1.155-.063,1.617-.084.546-.021,1.659-.042,2.016-.021v-2.583c-.609.063-1.428.105-2.016.147-.483.021-1.008.063-1.575.105.021-.693.021-1.449.042-2.268C99.96-15.225,100.023-16.149,100.065-16.485Z" transform="translate(207 1505)" fill="#295c9b"/>
    </g>
    <g id="グループ_5584" data-name="グループ 5584" transform="translate(-4 -124)">
      <g id="楕円形_19" data-name="楕円形 19" transform="translate(398 1422)" fill="#fff" stroke="#295c9b" stroke-width="2">
        <ellipse cx="73.5" cy="74" rx="73.5" ry="74" stroke="none"/>
        <ellipse cx="73.5" cy="74" rx="72.5" ry="73" fill="none"/>
      </g>
      <path id="パス_53847" data-name="パス 53847" d="M16.884-15.393A1.219,1.219,0,0,1,18.1-16.611a1.215,1.215,0,0,1,1.2,1.218,1.21,1.21,0,0,1-1.2,1.2A1.215,1.215,0,0,1,16.884-15.393Zm-1.3,0a2.326,2.326,0,0,0,.042.4,9.061,9.061,0,0,1-1.2.084H4.7a23.382,23.382,0,0,1-2.5-.168v2.961c.525-.042,1.533-.084,2.5-.084h9.765a13.2,13.2,0,0,1-2.457,5.922A13.767,13.767,0,0,1,3.78-1.344l2.289,2.52a16.867,16.867,0,0,0,8.442-5.817,21.2,21.2,0,0,0,3.15-7.644c.063-.189.1-.4.168-.63a1.2,1.2,0,0,0,.273.021,2.519,2.519,0,0,0,2.5-2.5,2.523,2.523,0,0,0-2.5-2.52A2.527,2.527,0,0,0,15.582-15.393Zm10.1-.714V-13.4c.609-.042,1.512-.063,2.184-.063H35.91c.756,0,1.743.021,2.31.063v-2.709a19.8,19.8,0,0,1-2.268.1H27.867A17.7,17.7,0,0,1,25.683-16.107Zm14.3,6.09-1.869-1.155a4.43,4.43,0,0,1-1.533.21h-10.4c-.651,0-1.554-.063-2.436-.126v2.73c.882-.084,1.932-.105,2.436-.105H36.33A9.111,9.111,0,0,1,34.167-4.83,14.165,14.165,0,0,1,26.9-1.155L28.98,1.218a15.725,15.725,0,0,0,7.5-4.536,15.092,15.092,0,0,0,3.108-5.817A7.78,7.78,0,0,1,39.984-10.017Zm7.077-5.943-1.974,2.1a43.664,43.664,0,0,1,5.25,4.536l2.142-2.184A42.413,42.413,0,0,0,47.061-15.96ZM44.436-1.974,46.2.8a22.742,22.742,0,0,0,7.791-2.961,22.33,22.33,0,0,0,7.77-7.77l-1.638-2.961a19.774,19.774,0,0,1-7.644,8.169A21.644,21.644,0,0,1,44.436-1.974ZM66.57-14.259v3.045c.714-.042,1.68-.084,2.478-.084h8.673c.735,0,1.722.063,2.331.084v-3.045c-.588.063-1.491.126-2.331.126H69.027C68.313-14.133,67.326-14.175,66.57-14.259ZM64.806-3.99V-.777C65.583-.84,66.612-.9,67.431-.9H79.485a22.812,22.812,0,0,1,2.31.126V-3.99a21.285,21.285,0,0,1-2.31.126H67.431C66.612-3.864,65.625-3.927,64.806-3.99ZM89.061-15.96l-1.974,2.1a43.663,43.663,0,0,1,5.25,4.536l2.142-2.184A42.413,42.413,0,0,0,89.061-15.96ZM86.436-1.974,88.2.8a22.742,22.742,0,0,0,7.791-2.961,22.33,22.33,0,0,0,7.77-7.77l-1.638-2.961a19.774,19.774,0,0,1-7.644,8.169A21.644,21.644,0,0,1,86.436-1.974ZM121.359-17.2l-1.659.672a24.352,24.352,0,0,1,1.533,2.709l-.147-.084a6.615,6.615,0,0,1-1.827.252h-4.2c.021-.042.042-.063.063-.1A21.786,21.786,0,0,1,116.4-15.9l-3.087-1.008a9.5,9.5,0,0,1-.945,2.184,18.161,18.161,0,0,1-6.552,6.762l2.352,1.764a23.6,23.6,0,0,0,5.313-5.082h5.9A14.855,14.855,0,0,1,116.4-5.565,16.8,16.8,0,0,1,107.94-.357l2.478,2.226a19.559,19.559,0,0,0,8.463-5.943,21.321,21.321,0,0,0,3.675-6.993,8.408,8.408,0,0,1,.693-1.512l-1.785-1.092,1.554-.651A26.694,26.694,0,0,0,121.359-17.2Zm2.478-.945-1.659.672a22.264,22.264,0,0,1,1.7,2.9l1.659-.714A29.984,29.984,0,0,0,123.837-18.144Z" transform="translate(409 1504)" fill="#295c9b"/>
    </g>
    <g id="グループ_5585" data-name="グループ 5585" transform="translate(-1 -124)">
      <g id="パス_53846" data-name="パス 53846" transform="translate(605 1422)" fill="#fff">
        <path d="M 74 147 C 64.14462280273438 147 54.58457946777344 145.0700378417969 45.58541870117188 141.2637023925781 C 41.26007843017578 139.4342346191406 37.08821868896484 137.1698150634766 33.18569946289062 134.5333404541016 C 29.32002067565918 131.9217224121094 25.68486022949219 128.9224395751953 22.38120079040527 125.6187973022461 C 19.07756042480469 122.3151397705078 16.07827949523926 118.6799774169922 13.46665954589844 114.8143005371094 C 10.83018016815186 110.9117813110352 8.565759658813477 106.7399215698242 6.736299991607666 102.4145812988281 C 2.929960012435913 93.41542053222656 1 83.85537719726562 1 74 C 1 64.14462280273438 2.929960012435913 54.58457946777344 6.736299991607666 45.58541870117188 C 8.565759658813477 41.26007843017578 10.83018016815186 37.08821868896484 13.46665954589844 33.18569946289062 C 16.07827949523926 29.32002067565918 19.07756042480469 25.68486022949219 22.38120079040527 22.38120079040527 C 25.68486022949219 19.07756042480469 29.32002067565918 16.07827949523926 33.18569946289062 13.46665954589844 C 37.08821868896484 10.83018016815186 41.26007843017578 8.565759658813477 45.58541870117188 6.736299991607666 C 54.58457946777344 2.929960012435913 64.14462280273438 1 74 1 C 83.85537719726562 1 93.41542053222656 2.929960012435913 102.4145812988281 6.736299991607666 C 106.7399215698242 8.565759658813477 110.9117813110352 10.83018016815186 114.8143005371094 13.46665954589844 C 118.6799774169922 16.07827949523926 122.3151397705078 19.07756042480469 125.6187973022461 22.38120079040527 C 128.9224395751953 25.68486022949219 131.9217224121094 29.32002067565918 134.5333404541016 33.18569946289062 C 137.1698150634766 37.08821868896484 139.4342346191406 41.26007843017578 141.2637023925781 45.58541870117188 C 145.0700378417969 54.58457946777344 147 64.14462280273438 147 74 C 147 83.85537719726562 145.0700378417969 93.41542053222656 141.2637023925781 102.4145812988281 C 139.4342346191406 106.7399215698242 137.1698150634766 110.9117813110352 134.5333404541016 114.8143005371094 C 131.9217224121094 118.6799774169922 128.9224395751953 122.3151397705078 125.6187973022461 125.6187973022461 C 122.3151397705078 128.9224395751953 118.6799774169922 131.9217224121094 114.8143005371094 134.5333404541016 C 110.9117813110352 137.1698150634766 106.7399215698242 139.4342346191406 102.4145812988281 141.2637023925781 C 93.41542053222656 145.0700378417969 83.85537719726562 147 74 147 Z" stroke="none"/>
        <path d="M 74 2 C 64.27918243408203 2 54.85019683837891 3.90338134765625 45.97496032714844 7.657302856445312 C 41.70909881591797 9.461593627929688 37.59452056884766 11.6949462890625 33.74552154541016 14.29527282714844 C 29.93256378173828 16.87126159667969 26.34696197509766 19.82968139648438 23.08831787109375 23.08831787109375 C 19.82968139648438 26.34696197509766 16.87126159667969 29.93256378173828 14.29527282714844 33.74552154541016 C 11.6949462890625 37.59452056884766 9.461593627929688 41.70909881591797 7.657302856445312 45.97496032714844 C 3.90338134765625 54.85019683837891 2 64.27918243408203 2 74 C 2 83.72081756591797 3.90338134765625 93.14979553222656 7.657302856445312 102.0250396728516 C 9.461593627929688 106.290901184082 11.6949462890625 110.4054794311523 14.29527282714844 114.2544784545898 C 16.87126159667969 118.0674438476562 19.82968139648438 121.6530380249023 23.08831787109375 124.9116821289062 C 26.34696197509766 128.1703186035156 29.93256378173828 131.1287384033203 33.74552154541016 133.7047119140625 C 37.59452056884766 136.3050537109375 41.70909881591797 138.5384063720703 45.97496032714844 140.3426971435547 C 54.85019683837891 144.0966186523438 64.27918243408203 146 74 146 C 83.72081756591797 146 93.14979553222656 144.0966186523438 102.0250396728516 140.3426971435547 C 106.290901184082 138.5384063720703 110.4054794311523 136.3050537109375 114.2544784545898 133.7047119140625 C 118.0674438476562 131.1287384033203 121.6530380249023 128.1703186035156 124.9116821289062 124.9116821289062 C 128.1703186035156 121.6530380249023 131.1287384033203 118.0674438476562 133.7047119140625 114.2544784545898 C 136.3050537109375 110.4054794311523 138.5384063720703 106.290901184082 140.3426971435547 102.0250396728516 C 144.0966186523438 93.14979553222656 146 83.72081756591797 146 74 C 146 64.27918243408203 144.0966186523438 54.85019683837891 140.3426971435547 45.97496032714844 C 138.5384063720703 41.70909881591797 136.3050537109375 37.59452056884766 133.7047119140625 33.74552154541016 C 131.1287384033203 29.93256378173828 128.1703186035156 26.34696197509766 124.9116821289062 23.08831787109375 C 121.6530380249023 19.82968139648438 118.0674438476562 16.87126159667969 114.2544784545898 14.29527282714844 C 110.4054794311523 11.6949462890625 106.290901184082 9.461593627929688 102.0250396728516 7.657302856445312 C 93.14979553222656 3.90338134765625 83.72081756591797 2 74 2 M 74 0 C 114.8690643310547 0 148 33.13094329833984 148 74 C 148 114.8690643310547 114.8690643310547 148 74 148 C 33.13094329833984 148 0 114.8690643310547 0 74 C 0 33.13094329833984 33.13094329833984 0 74 0 Z" stroke="none" fill="#295c9b"/>
      </g>
      <path id="パス_53850" data-name="パス 53850" d="M-55.314-17.136H-61.3v1.89h5.985Zm.609,2.814h-7.6v1.974h7.6Zm-2.6,10.668v2.415h-2.058V-3.654Zm2.079-1.974h-6.195V1.533h2.058V.714h4.137Zm-6.132-1.029h6.174V-8.526h-6.174Zm0-2.835h6.174V-11.4h-6.174Zm11.025,7.1V-7.14H-48.7V-9.282h-5.712V-7.14h1.764V-2c-.8.126-1.533.252-2.163.336l.5,2.289c1.806-.378,4.1-.861,6.258-1.344l-.168-2.058Zm7.413-9.156v-2.268h-3.108q-.032-1.386,0-2.835a14.385,14.385,0,0,1,1.68,2.646l1.806-1.008a14.8,14.8,0,0,0-1.806-2.562l-1.68.861v-1.05h-2.394c0,1.386.021,2.688.042,3.948H-54.39v2.268h6.069c.252,8.358,1.029,13.314,3.633,13.377.777.021,1.827-.714,2.373-4.137A7.861,7.861,0,0,1-44.058-3.8c-.084,1.575-.252,2.541-.525,2.541-.8-.063-1.281-4.284-1.428-10.29Zm6.216-6.153A21.847,21.847,0,0,1-41.5-9.849,17.065,17.065,0,0,1-40.11-7.182c.42-.462.861-.987,1.3-1.512v10.5h2.52V-12.579a32.713,32.713,0,0,0,2.016-4.368Zm15.057,5.712v-2.373H-29.8a24.819,24.819,0,0,0,1.029-2.6l-2.415-.609A20.847,20.847,0,0,1-35.637-9.66a16.985,16.985,0,0,1,1.911,1.743,23.318,23.318,0,0,0,2.751-4.074h.8V1.827h2.562V-2.835H-21.9v-2.31h-5.712V-7.518h5.439V-9.786h-5.439v-2.2Zm6.384-5.754A22.014,22.014,0,0,1-20.6-9.66,15.822,15.822,0,0,1-19.152-7.1a21.09,21.09,0,0,0,1.68-1.869V1.806h2.478V-12.579a33.951,33.951,0,0,0,2.163-4.389ZM-.672-9.009v-2.436H-5.985v-5.922H-8.547v5.922h-5.565v2.436h5.565v7.644h-5.04V1.029H-1.029V-1.365H-5.985V-9.009Zm8.9,2.436C7.875-7.14,6.363-9.45,5.8-10.227v-.924H7.9v-2.31H5.8v-4.326H3.528v4.326H1.008v2.31H3.339A21,21,0,0,1,.525-4.116a11.982,11.982,0,0,1,1.092,2.2A17.715,17.715,0,0,0,3.528-6.048V1.806H5.8V-7.245c.462.9.9,1.848,1.155,2.457Zm3.8,2.6C10.248-3.045,8.4-2.1,7.161-1.533L8.232.567c1.344-.735,2.982-1.659,4.452-2.52ZM8.358-6.258A14.72,14.72,0,0,1,10.353-3.57l1.785-1.26a14.386,14.386,0,0,0-2.079-2.541Zm9.849-1.176A16.53,16.53,0,0,1,16.17-5.166a11.4,11.4,0,0,1-.861-1.848v-.819H20.2V-9.87H15.309v-.924h4.074v-1.869H15.309v-.84h4.515v-1.953H17.787c.336-.525.714-1.155,1.092-1.785L16.4-17.808c-.21.672-.63,1.638-.945,2.352h-2.6a11.616,11.616,0,0,0-1.2-2.31l-1.974.672a11.921,11.921,0,0,1,.819,1.638H8.358V-13.5h4.536v.84H8.925v1.869h3.969v.924H7.959v2.037h4.935V-.672c0,.252-.084.357-.336.357s-1.071,0-1.785-.042a7.769,7.769,0,0,1,.672,2.226,6.849,6.849,0,0,0,2.982-.42c.672-.378.882-.966.882-2.1V-2.835a9.961,9.961,0,0,0,3.717,3.7A9.3,9.3,0,0,1,20.6-1.155a8.777,8.777,0,0,1-3.276-2.373A33.8,33.8,0,0,0,20.1-6.111Zm9.807-8.19a15.816,15.816,0,0,0-3.8-2.058l-1.365,1.848a14.421,14.421,0,0,1,3.717,2.268Zm-1.155,5.586a14.653,14.653,0,0,0-3.885-1.995l-1.323,1.869a16.31,16.31,0,0,1,3.78,2.2ZM25.935-6.72a63.265,63.265,0,0,1-3.717,6.7L24.4,1.533c1.176-2.058,2.394-4.473,3.444-6.7Zm8.736-5.5h2.6v3.8H34.608c.042-.693.063-1.365.063-2.058Zm6.615,6.153V-8.421H39.711v-6.153h-5.04v-3.192H32.193v3.192H28.686v2.352h3.507V-10.5q0,1.039-.063,2.079H27.657v2.352h4.1a9.42,9.42,0,0,1-5.208,6.2A9.519,9.519,0,0,1,28.623,1.89a10.5,10.5,0,0,0,5.439-6.741,11.842,11.842,0,0,0,5.712,6.72A9.281,9.281,0,0,1,41.517-.315a9.847,9.847,0,0,1-5.355-5.754Zm4.7-7.224H58.9v2.877h2.583v-5.25H53.8v-2.1H51.156v2.1H43.533v5.25H45.99Zm7.791,9.156h5.775V-6.489H53.781V-9.114h4.494v-2.373H46.725v2.373H51.2V-1.7A5.653,5.653,0,0,1,48.342-5c.189-.84.336-1.722.462-2.667l-2.6-.252c-.378,3.591-1.407,6.489-3.675,8.169a15.292,15.292,0,0,1,2.058,1.7,10.525,10.525,0,0,0,2.793-3.969C49.308.966,52.185,1.6,56.049,1.6H61.3a9.339,9.339,0,0,1,.882-2.541c-1.407.063-4.872.063-6.006.063a21.7,21.7,0,0,1-2.394-.126Z" transform="translate(679 1505)" fill="#295c9b"/>
    </g>
    <g id="グループ_5586" data-name="グループ 5586" transform="translate(-2 -124)">
      <g id="楕円形_21" data-name="楕円形 21" transform="translate(817 1422)" fill="#fff" stroke="#295c9b" stroke-width="2">
        <circle cx="74" cy="74" r="74" stroke="none"/>
        <circle cx="74" cy="74" r="73" fill="none"/>
      </g>
      <path id="パス_53845" data-name="パス 53845" d="M-37.359-6.006A31.159,31.159,0,0,0-31.353-8.4a26.889,26.889,0,0,0,5.8,2.394Zm2.079,4.893V-3.738h7.6v2.625Zm7.14-12.516a15.681,15.681,0,0,1-3.213,2.478,17.107,17.107,0,0,1-3.213-2.478Zm2.331-2.268-.42.126h-6.657c.336-.462.63-.945.924-1.407L-34.335-18a16.925,16.925,0,0,1-6.678,6.237,15.517,15.517,0,0,1,1.848,1.869,21.664,21.664,0,0,0,2.94-2.226,21.054,21.054,0,0,0,2.52,2.205,34.335,34.335,0,0,1-7.728,2.394,10.112,10.112,0,0,1,1.218,2.247c.8-.168,1.6-.378,2.394-.609V1.869h2.541V1.092h7.6v.693h2.688V-5.859c.651.168,1.281.336,1.953.462A11.855,11.855,0,0,1-21.42-7.728,30.019,30.019,0,0,1-28.854-9.87,16.748,16.748,0,0,0-24-14.742Zm15.96,9.87V-7.1H-7.98v1.071Zm0-3.57H-7.98v1.029H-9.849Zm6.195,0v1.029H-5.586V-9.6Zm0,3.57H-5.586V-7.1h1.932ZM-5.586-.5v-.945h4.179v-1.89H-5.586V-4.3h4.179V-11.34H-5.586V-12.2h4.515v-1.932H-5.586v-1.05a41.1,41.1,0,0,0,4.473-.567l-1.428-1.869a71.8,71.8,0,0,1-9.954.861,6.577,6.577,0,0,1,.546,1.869c1.26-.021,2.6-.063,3.969-.126v.882H-12.7V-12.2H-7.98v.861h-4.032v5.082c-.462-.546-2.1-2.247-2.646-2.709v-.609h2.247v-2.331h-2.247v-2.961a21.9,21.9,0,0,0,2.5-.8l-1.659-1.911a30.019,30.019,0,0,1-6.51,1.743,8.656,8.656,0,0,1,.693,1.911c.819-.105,1.68-.252,2.562-.42v2.436h-3v2.331h2.667a20.521,20.521,0,0,1-3.108,5.628,12.4,12.4,0,0,1,1.155,2.373,18.662,18.662,0,0,0,2.289-4.158V1.806h2.415v-8.19A18.4,18.4,0,0,1-13.4-4.263l1.386-1.89V-4.3H-7.98v.966h-4.179v1.89H-7.98V-.5h-5.355V1.47H-.63V-.5ZM7.686-17.136H1.7v1.89H7.686ZM8.3-14.322H.693v1.974H8.3ZM5.691-3.654v2.415H3.633V-3.654ZM7.77-5.628H1.575V1.533H3.633V.714H7.77ZM1.638-6.657H7.812V-8.526H1.638Zm0-2.835H7.812V-11.4H1.638Zm11.025,7.1V-7.14H14.3V-9.282H8.589V-7.14h1.764V-2c-.8.126-1.533.252-2.163.336L8.694.63c1.806-.378,4.1-.861,6.258-1.344l-.168-2.058Zm7.413-9.156v-2.268H16.968q-.031-1.386,0-2.835a14.385,14.385,0,0,1,1.68,2.646l1.806-1.008a14.8,14.8,0,0,0-1.806-2.562l-1.68.861v-1.05H14.574c0,1.386.021,2.688.042,3.948H8.61v2.268h6.069c.252,8.358,1.029,13.314,3.633,13.377.777.021,1.827-.714,2.373-4.137A7.861,7.861,0,0,1,18.942-3.8c-.084,1.575-.252,2.541-.525,2.541-.8-.063-1.281-4.284-1.428-10.29ZM22.722.651c.861-1.176,1.071-3.129,1.176-5.04l-1.386-.273a9.757,9.757,0,0,1-1.05,4.62Zm1.365-4.872a24.858,24.858,0,0,1,.147,3.885l1.134-.147a20.565,20.565,0,0,0-.21-3.843Zm1.428-.105a15.8,15.8,0,0,1,.651,3.4l1.092-.231a17.3,17.3,0,0,0-.693-3.381ZM28.161-7.5V-8.8h1.827v-1.89H28.161v-1.26h1.827v-.483a11.535,11.535,0,0,1,.987,1.785,12.353,12.353,0,0,0,1.617-1.2v1.134h2.142v1.134h-3.57v5.544h2.982A7.415,7.415,0,0,1,30.282-.084a51.587,51.587,0,0,0,.5-6.594c.021-.273.021-.819.021-.819ZM24.738-8.8h1.428v1.3H24.738Zm1.428-3.15v1.26H24.738v-1.26Zm0-3.045v1.155H24.738v-1.155Zm7.245,2.373a15.69,15.69,0,0,0,2.31-2.982,14.906,14.906,0,0,0,2.457,2.982ZM38.577-7.77v1.932H36.855a18.414,18.414,0,0,0,.084-1.848V-7.77ZM33.2-5.838V-7.77h1.533v.063a11.336,11.336,0,0,1-.126,1.869Zm7.5,1.806V-9.576H36.939V-10.71h2.1v-1.155A9.542,9.542,0,0,0,40.4-10.9a14.542,14.542,0,0,1,1.239-2.142,13.56,13.56,0,0,1-4.935-4.725H34.566a13.405,13.405,0,0,1-4.578,5.04v-1.113H28.161v-1.155h2.247V-17.01H22.68V-5.565h6.006c-.042.9-.084,1.68-.126,2.31a12.123,12.123,0,0,0-.714-1.7l-.987.336A12.307,12.307,0,0,1,27.8-1.911l.672-.252a4.886,4.886,0,0,1-.357,1.827.627.627,0,0,1-.567.273,11.9,11.9,0,0,1-1.281-.084,4.8,4.8,0,0,1,.5,1.932,8.173,8.173,0,0,0,1.848-.063,1.667,1.667,0,0,0,1.26-.735A1.71,1.71,0,0,0,30.156.4a8.356,8.356,0,0,1,1.218,1.47A9.223,9.223,0,0,0,36.036-2.6a9.1,9.1,0,0,0,3.927,4.41A9.716,9.716,0,0,1,41.538-.168a7.9,7.9,0,0,1-3.927-3.864ZM-1.827,17.36H-4.095v8.358c0,.252-.084.336-.4.336-.294.021-1.3.021-2.247-.021a7.747,7.747,0,0,1,.735,1.974,8.831,8.831,0,0,0,3.213-.336c.756-.315.966-.84.966-1.911Zm-4.557.693H-8.61v6.993h2.226Zm2.457,12.432a24.436,24.436,0,0,1-2.982,1.806A7.684,7.684,0,0,1-8.4,30.485Zm-14.238-9.492a8.168,8.168,0,0,0,.525-.84h1.995v.84Zm14.994,9.492h2.1V28.511h-8.19V27.419h-2.226a2.739,2.739,0,0,0,.987-.21c.546-.252.693-.63.693-1.428V23.408h-3.717v-.735h4.053v-1.68h-4.053v-.84h3.486v-1.6h-3.486V17.213h-2.121v1.344h-1.2c.126-.294.231-.567.336-.861l-1.827-.462a9.131,9.131,0,0,1-1.638,3.024c.336.168.882.483,1.3.735H-19.95v1.68h4.305v.735H-19.11v4.116h1.89v-2.6h1.575v3.066h2.121V24.92H-11.8v.861c0,.168-.063.231-.252.231-.147,0-.651,0-1.134-.021a6.389,6.389,0,0,1,.609,1.449h.84v1.071h-8.169v1.974h6.132a23.679,23.679,0,0,1-6.489,1.764,10.75,10.75,0,0,1,1.323,1.806,23.927,23.927,0,0,0,3.465-.882v1.176c-.756.084-1.47.168-2.079.231l.357,2.037c2.31-.336,5.439-.756,8.4-1.176l-.084-1.953c-1.407.189-2.835.378-4.2.546V32.207A15.812,15.812,0,0,0-10.6,30.716c1.575,3.339,4.2,5.313,8.568,6.153A8.618,8.618,0,0,1-.672,34.874a14.192,14.192,0,0,1-4.557-1.407,28.309,28.309,0,0,0,3.465-1.932Zm15.288-8.8v1.785H8.106a12.509,12.509,0,0,0,1.386-1.785ZM6.531,23.471V25.55h13.5V23.471H14.6V21.686h4.578V19.565H14.6V17.234H12.117v2.331h-1.47a15.292,15.292,0,0,0,.651-1.617l-2.331-.525A11.454,11.454,0,0,1,5.985,22.3a15.559,15.559,0,0,1,2.079,1.176Zm4.116,5.208H16.17v2.142H10.647Zm8.127,4.137V26.7H8.211v6.111ZM6.363,20.867A16.816,16.816,0,0,0,2.856,17.7L1.008,19.208a15.892,15.892,0,0,1,3.381,3.318Zm-.525,4.494H.987V27.65H3.4v4.431A27.58,27.58,0,0,1,.525,34.013l1.218,2.6c1.155-.882,2.079-1.7,3-2.52,1.365,1.638,3.087,2.226,5.67,2.331,2.5.1,6.72.063,9.24-.063a13.079,13.079,0,0,1,.777-2.52c-2.793.21-7.518.273-9.975.168-2.184-.084-3.759-.651-4.62-2.058ZM-19.509,64.5a15.268,15.268,0,0,1-1.113,4.872,12.343,12.343,0,0,1,1.911.9,19.416,19.416,0,0,0,1.26-5.418Zm16.086-6.363v5.88c-.63-1.323-1.491-2.856-2.31-4.221.084-.525.126-1.092.189-1.659Zm-6.447,0h2.058c-.21,2.814-.735,5.124-2.058,6.846Zm8.694-2.289H-5.418c.042-1.155.063-2.373.084-3.633H-7.665c0,1.281-.021,2.478-.042,3.633h-4.368v6.867A21.283,21.283,0,0,0-13.734,59l-1.659.693c.252.462.5.987.735,1.512l-2.016.084c1.323-1.7,2.772-3.822,3.927-5.649l-2.037-.945a38.084,38.084,0,0,1-1.869,3.4c-.21-.252-.441-.546-.714-.84.756-1.176,1.6-2.793,2.352-4.221l-2.163-.8a26.621,26.621,0,0,1-1.533,3.654c-.168-.147-.336-.294-.483-.42l-1.2,1.7a20.607,20.607,0,0,1,2.478,2.856c-.336.483-.672.945-.987,1.344l-1.512.063.21,2.163,3.045-.189v8.442h2.163V63.259l1.071-.084a10.068,10.068,0,0,1,.273,1.071l1.575-.714v3.843a24.143,24.143,0,0,0-1.113-3.045l-1.764.546a24.848,24.848,0,0,1,1.218,3.906l1.659-.609v3.612h2.2V66.073a5.268,5.268,0,0,1,.987,1.155A9.758,9.758,0,0,0-6.4,62.986a40.25,40.25,0,0,1,1.827,3.906l1.155-1.113V69.2c0,.294-.084.378-.357.378-.294,0-1.26.021-2.121-.021a7.572,7.572,0,0,1,.693,2.289,6.946,6.946,0,0,0,3.129-.441c.714-.378.9-1.008.9-2.142Zm15.351,2.415H6.825V55.426h7.35Zm2.541-5.229H4.41v7.6H16.716Zm-9.7,11.739v3.612H3.885V64.771ZM1.533,71.827H3.885v-1.05H7.014v.945h2.5V62.377H1.533Zm12.159-3.444V64.771h3.339v3.612ZM11.3,62.377v9.45h2.394v-1.05h3.339v.966h2.52V62.377Z" transform="translate(892 1470)" fill="#295c9b"/>
    </g>
    <g id="グループ_5317" data-name="グループ 5317" transform="translate(980 1353.492)">
      <path id="パス_8778" data-name="パス 8778" d="M6360.139,1725.678h38" transform="translate(-6360.139 -1706.677)" fill="none" stroke="#295c9b" stroke-width="2"/>
      <path id="パス_8782" data-name="パス 8782" d="M0,0H38" transform="translate(19.002) rotate(90)" fill="none" stroke="#295c9b" stroke-width="2"/>
    </g>
    <g id="グループ_5541" data-name="グループ 5541" transform="translate(629.799 456)">
      <g id="グループ_5540" data-name="グループ 5540" transform="translate(406.201 1006)">
        <circle id="楕円形_14" data-name="楕円形 14" cx="74" cy="74" r="74" transform="translate(0 -164)" fill="#053d7e"/>
        <path id="パス_53849" data-name="パス 53849" d="M-28.215-18.279l-2.133-2a13.924,13.924,0,0,1-2.754.243H-47.655a21.405,21.405,0,0,1-3.294-.27v3.753c1.269-.108,2.16-.189,3.294-.189h14.067a16.057,16.057,0,0,1-4.968,5.022l2.808,2.241a27.5,27.5,0,0,0,6.48-7.4A13.594,13.594,0,0,1-28.215-18.279Zm-11.016,3.645h-3.915a14.968,14.968,0,0,1,.189,2.43c0,4.428-.648,7.29-4.077,9.666a10.669,10.669,0,0,1-2.835,1.485l3.159,2.565C-39.366-2.43-39.231-7.938-39.231-14.634ZM-3-17.982l-2.646-1.7a9.05,9.05,0,0,1-2.133.216H-20.25c-.891,0-2.43-.135-3.24-.216v3.807c.7-.054,2-.108,3.213-.108H-7.7A17.091,17.091,0,0,1-10.854-8.37c-2.187,2.727-5.238,5.076-10.584,6.345l2.943,3.213A21.6,21.6,0,0,0-7.641-6.264c2.241-3,3.429-7.182,4.05-9.828A11.794,11.794,0,0,1-3-17.982Zm18.36-3.4L11.448-22.6a11.175,11.175,0,0,1-1.242,2.808A25.07,25.07,0,0,1,1.62-10.8L4.536-8.559a32.474,32.474,0,0,0,7.128-6.993h7.722a19.164,19.164,0,0,1-2.97,5.967c-1.7-1.134-3.4-2.241-4.833-3.051l-2.4,2.457c1.377.864,3.159,2.079,4.914,3.375A22.937,22.937,0,0,1,4.185-.945L7.317,1.782a25.405,25.405,0,0,0,9.666-6.4c1.107.891,2.106,1.728,2.835,2.4l2.565-3.051c-.783-.648-1.836-1.431-3-2.268a30.918,30.918,0,0,0,4-7.776,12.7,12.7,0,0,1,.891-1.917l-2.754-1.7a8.573,8.573,0,0,1-2.349.3H13.689A29.087,29.087,0,0,1,15.363-21.384ZM29.484-12.5v4.239c1-.081,2.808-.135,4.347-.135h14.5c1.134,0,2.511.108,3.159.135V-12.5c-.7.054-1.89.162-3.159.162h-14.5C32.427-12.339,30.456-12.42,29.484-12.5ZM-30,18.018l-2.646-1.7a9.05,9.05,0,0,1-2.133.216H-47.25c-.891,0-2.43-.135-3.24-.216v3.807c.7-.054,2-.108,3.213-.108h12.582a17.091,17.091,0,0,1-3.159,7.614c-2.187,2.727-5.238,5.076-10.584,6.345l2.943,3.213a21.6,21.6,0,0,0,10.854-7.452c2.241-3,3.429-7.182,4.05-9.828A11.794,11.794,0,0,1-30,18.018Zm21.168,1.188h-3.483c.108.729.189,1.593.216,2.241.027.513.054,1.053.054,1.647h-7.344a23.963,23.963,0,0,1-2.457-.162v3.321c.783-.054,1.755-.108,2.538-.108h5.778a26.513,26.513,0,0,1-9.45,7.263l2.349,2.7a30.691,30.691,0,0,0,8.721-7.1c.027,2.052.054,4.023.054,5.346,0,.54-.189.837-.7.837a24.664,24.664,0,0,1-3.105-.243l.216,3.078c1.215.081,2.889.135,4.185.135A2.354,2.354,0,0,0-8.64,35.784c-.027-2.754-.108-6.426-.189-9.639h3.24c.594,0,1.431.027,2.079.054V22.932c-.486.054-1.512.162-2.214.162H-8.91c0-.594-.027-1.161-.027-1.647A19.788,19.788,0,0,1-8.829,19.206ZM3.4,16.857c.054.756.054,1.863.054,2.619v13.2c0,1.3-.081,3.645-.081,3.78H7.1c0-.081,0-.7-.027-1.458H20.088c0,.783-.027,1.4-.027,1.458h3.726c0-.108-.054-2.7-.054-3.753V19.476c0-.81,0-1.809.054-2.619-.972.054-2,.054-2.673.054H6.264C5.535,16.911,4.509,16.884,3.4,16.857ZM7.074,20.34H20.115v11.2H7.074ZM29.484,23.5v4.239c1-.081,2.808-.135,4.347-.135h14.5c1.134,0,2.511.108,3.159.135V23.5c-.7.054-1.89.162-3.159.162h-14.5C32.427,23.661,30.456,23.58,29.484,23.5Z" transform="translate(74 -97)" fill="#fff"/>
      </g>
    </g>
    <g id="Icon_feather-arrow-right" data-name="Icon feather-arrow-right" transform="translate(348.861 1354.5)">
      <path id="パス_8904" data-name="パス 8904" d="M7.5,18H34.861" transform="translate(-7.361 -0.5)" fill="none" stroke="#295c9b" stroke-linecap="round" stroke-linejoin="round" stroke-width="2"/>
      <path id="パス_8905" data-name="パス 8905" d="M18,7.5l10.5,10L18,27.5" transform="translate(-1)" fill="none" stroke="#295c9b" stroke-linecap="round" stroke-linejoin="round" stroke-width="2"/>
    </g>
    <g id="グループ_5587" data-name="グループ 5587" transform="translate(3 -140)">
      <g id="Icon_feather-arrow-right-2" data-name="Icon feather-arrow-right" transform="translate(555.861 1494.5)">
        <path id="パス_8904-2" data-name="パス 8904" d="M7.5,18H34.861" transform="translate(-7.361 -0.5)" fill="none" stroke="#295c9b" stroke-linecap="round" stroke-linejoin="round" stroke-width="2"/>
        <path id="パス_8905-2" data-name="パス 8905" d="M18,7.5l10.5,10L18,27.5" transform="translate(-1)" fill="none" stroke="#295c9b" stroke-linecap="round" stroke-linejoin="round" stroke-width="2"/>
      </g>
    </g>
    <g id="Icon_feather-arrow-right-3" data-name="Icon feather-arrow-right" transform="translate(768.861 1354.5)">
      <path id="パス_8904-3" data-name="パス 8904" d="M7.5,18H34.861" transform="translate(-7.361 -0.5)" fill="none" stroke="#295c9b" stroke-linecap="round" stroke-linejoin="round" stroke-width="2"/>
      <path id="パス_8905-3" data-name="パス 8905" d="M18,7.5l10.5,10L18,27.5" transform="translate(-1)" fill="none" stroke="#295c9b" stroke-linecap="round" stroke-linejoin="round" stroke-width="2"/>
    </g>
    <path id="パス_53844" data-name="パス 53844" d="M8.72,6.76H5.96A16.1,16.1,0,0,1,6.1,8.52c0,.34,0,.92-.02,1.62-.4.02-.8.04-1.16.04a22.178,22.178,0,0,1-2.76-.16l.04,2.42a24.52,24.52,0,0,0,2.8.1c.32,0,.68-.02,1.06-.04v1.68c0,.46,0,.94.02,1.42-2.46,1.06-4.46,2.88-4.46,4.62,0,2.12,2.74,3.8,4.68,3.8,1.32,0,2.2-.66,2.2-3.14,0-.68-.04-2.24-.08-3.82a13.484,13.484,0,0,1,3.76-.56c1.74,0,2.94.8,2.94,2.16,0,1.46-1.28,2.26-2.9,2.56a15.4,15.4,0,0,1-2.46.14l.92,2.58a18.312,18.312,0,0,0,2.62-.32c3.18-.8,4.42-2.58,4.42-4.94,0-2.76-2.42-4.36-5.5-4.36a16.572,16.572,0,0,0-3.84.52V14.1c0-.58,0-1.2.02-1.8,1.3-.16,2.68-.36,3.82-.62L12.16,9.2a24.494,24.494,0,0,1-3.68.72c.02-.5.04-.98.06-1.42C8.58,7.98,8.66,7.12,8.72,6.76Zm5.7,2.16-1.1,1.94a31.821,31.821,0,0,1,4.82,2.92l1.2-2.04A41.793,41.793,0,0,0,14.42,8.92ZM4.08,20.12c0-.7.82-1.52,2.04-2.18.04,1.08.06,2,.06,2.5,0,.68-.28.84-.64.84C5.02,21.28,4.08,20.74,4.08,20.12ZM26.82,18.5a23.84,23.84,0,0,0,3.08-1.34,21.722,21.722,0,0,0,3.42,1.34Zm-.12,3.66v-1.7h6.66v1.7Zm.96-9.24H32.1a11.5,11.5,0,0,1-2.2,1.72A11.564,11.564,0,0,1,27.56,13Zm6.46-1.88-.4.1H29.36c.22-.28.44-.56.64-.84l-2.22-.44h8.36v2.22h2.44V7.7H31.16V6.08H28.72V7.7h-7.3v4.38h2.34V9.86h3.68a11.626,11.626,0,0,1-5.62,4.02,6.655,6.655,0,0,1,1.58,1.76,19.936,19.936,0,0,0,2.44-1.34,16.263,16.263,0,0,0,1.8,1.5,28.446,28.446,0,0,1-7.02,1.98,7.9,7.9,0,0,1,1.1,2.12c.9-.18,1.78-.38,2.66-.62v5.46H26.7v-.62h6.66v.58h2.46V19.14c.66.12,1.34.24,2.04.34a11.659,11.659,0,0,1,1.5-2.3,30.516,30.516,0,0,1-7.08-1.5A12.793,12.793,0,0,0,35.72,12Zm13.72,5.7c-.34-.54-1.78-2.74-2.32-3.48v-.88h2v-2.2h-2V6.06H43.36v4.12h-2.4v2.2h2.22a20,20,0,0,1-2.68,6.7,11.411,11.411,0,0,1,1.04,2.1,16.872,16.872,0,0,0,1.82-3.94v7.48h2.16V16.1c.44.86.86,1.76,1.1,2.34Zm3.62,2.48c-1.7.88-3.46,1.78-4.64,2.32l1.02,2c1.28-.7,2.84-1.58,4.24-2.4Zm-3.5-2.18a14.019,14.019,0,0,1,1.9,2.56l1.7-1.2a13.7,13.7,0,0,0-1.98-2.42Zm9.38-1.12a15.743,15.743,0,0,1-1.94,2.16,10.856,10.856,0,0,1-.82-1.76v-.78h4.66V13.6H54.58v-.88h3.88V10.94H54.58v-.8h4.3V8.28H56.94c.32-.5.68-1.1,1.04-1.7l-2.36-.54c-.2.64-.6,1.56-.9,2.24H52.24a11.063,11.063,0,0,0-1.14-2.2l-1.88.64A11.354,11.354,0,0,1,50,8.28H47.96v1.86h4.32v.8H48.5v1.78h3.78v.88h-4.7v1.94h4.7v6.82c0,.24-.08.34-.32.34s-1.02,0-1.7-.04a7.4,7.4,0,0,1,.64,2.12,6.523,6.523,0,0,0,2.84-.4c.64-.36.84-.92.84-2V20.3a9.486,9.486,0,0,0,3.54,3.52,8.852,8.852,0,0,1,1.5-1.92,8.359,8.359,0,0,1-3.12-2.26,32.192,32.192,0,0,0,2.64-2.46ZM77.78,9.68,75.82,8.42a6.7,6.7,0,0,1-1.58.16H65c-.66,0-1.8-.1-2.4-.16v2.82c.52-.04,1.48-.08,2.38-.08H74.3a12.66,12.66,0,0,1-2.34,5.64,13.3,13.3,0,0,1-7.84,4.7l2.18,2.38a16,16,0,0,0,8.04-5.52,20.554,20.554,0,0,0,3-7.28A8.737,8.737,0,0,1,77.78,9.68Zm20,3.34L96.3,11.68a8.015,8.015,0,0,1-1.62.14H85.4a14.133,14.133,0,0,1-2.08-.16v2.58a19.222,19.222,0,0,1,2.08-.12h8.68a11.271,11.271,0,0,1-2.88,3.04l2,1.4a22.67,22.67,0,0,0,3.98-4.74A9.252,9.252,0,0,1,97.78,13.02Zm-6.86,2.1H88.16a7.948,7.948,0,0,1,.14,1.42c0,2.52-.42,4.3-2.68,5.84a7.145,7.145,0,0,1-1.62.86l2.12,1.7C90.8,22.36,90.8,18.86,90.92,15.12Zm10.92-1.38v3.14c.74-.06,2.08-.1,3.22-.1H115.8c.84,0,1.86.08,2.34.1V13.74c-.52.04-1.4.12-2.34.12H105.06C104.02,13.86,102.56,13.8,101.84,13.74Zm33.84-4.3-1.64-1.22a7.168,7.168,0,0,1-2.06.26h-7.06a22.344,22.344,0,0,1-2.36-.14v2.84c.42-.02,1.52-.14,2.36-.14h6.78a15.5,15.5,0,0,1-2.98,4.9,22.42,22.42,0,0,1-8.2,5.74l2.06,2.16a26.345,26.345,0,0,0,7.52-5.62,45.609,45.609,0,0,1,5.04,5.66l2.28-1.98a56.222,56.222,0,0,0-5.58-5.72,29.4,29.4,0,0,0,3.14-5.5A9.452,9.452,0,0,1,135.68,9.44Zm9.6,11.64a21.968,21.968,0,0,1-.2,2.8h3.12c-.08-.82-.18-2.22-.18-2.8V15.42a57.769,57.769,0,0,1,7.22,2.98l1.14-2.76a65.322,65.322,0,0,0-8.36-3.1V9.58a21.744,21.744,0,0,1,.18-2.4h-3.12a13.883,13.883,0,0,1,.2,2.4Zm15.1-11.8.26,2.74c2.32-.5,6.4-.94,8.28-1.14a8,8,0,0,0-2.98,6.18c0,4.34,3.96,6.58,8.16,6.86l.94-2.74c-3.4-.18-6.48-1.36-6.48-4.66a6.078,6.078,0,0,1,4.24-5.6,20.777,20.777,0,0,1,3.86-.28l-.02-2.56c-1.42.06-3.6.18-5.66.36-3.66.3-6.96.6-8.64.74C161.96,9.22,161.18,9.26,160.38,9.28ZM173.8,12.6l-1.48.62A15.431,15.431,0,0,1,173.88,16l1.52-.68A24.822,24.822,0,0,0,173.8,12.6Zm2.24-.92-1.46.68a17.6,17.6,0,0,1,1.64,2.7l1.5-.72A29.919,29.919,0,0,0,176.04,11.68Zm13.6-4.72H186.7a14.8,14.8,0,0,1,.14,1.84c0,.6-.02,1.18-.04,1.74h-2.86c-.76,0-1.8-.06-2.64-.14v2.62c.86-.08,1.96-.08,2.64-.08h2.64a11.762,11.762,0,0,1-3.3,7.12,11.918,11.918,0,0,1-2.62,1.96l2.32,1.88c3.58-2.54,5.48-5.68,6.22-10.96h4.5c0,2.16-.26,6.16-.84,7.42a1.064,1.064,0,0,1-1.14.7,16.554,16.554,0,0,1-2.8-.28l.32,2.68c.96.08,2.16.16,3.3.16a2.462,2.462,0,0,0,2.58-1.54c.86-2.04,1.1-7.62,1.18-9.78a8.177,8.177,0,0,1,.14-1.06l-1.74-.84a9.3,9.3,0,0,1-1.5.14h-3.76c.04-.58.06-1.18.08-1.8C189.54,8.26,189.58,7.42,189.64,6.96Zm26.04,2.48-1.64-1.22a7.168,7.168,0,0,1-2.06.26h-7.06a22.345,22.345,0,0,1-2.36-.14v2.84c.42-.02,1.52-.14,2.36-.14h6.78a15.5,15.5,0,0,1-2.98,4.9,22.42,22.42,0,0,1-8.2,5.74l2.06,2.16a26.345,26.345,0,0,0,7.52-5.62,45.609,45.609,0,0,1,5.04,5.66l2.28-1.98a56.222,56.222,0,0,0-5.58-5.72,29.4,29.4,0,0,0,3.14-5.5A9.452,9.452,0,0,1,215.68,9.44Zm14.7-2.28-2.9-.9a8.277,8.277,0,0,1-.92,2.08A18.57,18.57,0,0,1,220.2,15l2.16,1.66a24.055,24.055,0,0,0,5.28-5.18h5.72a14.2,14.2,0,0,1-2.2,4.42c-1.26-.84-2.52-1.66-3.58-2.26l-1.78,1.82c1.02.64,2.34,1.54,3.64,2.5a16.991,16.991,0,0,1-7.34,4.34l2.32,2.02a18.819,18.819,0,0,0,7.16-4.74c.82.66,1.56,1.28,2.1,1.78l1.9-2.26c-.58-.48-1.36-1.06-2.22-1.68a22.9,22.9,0,0,0,2.96-5.76,9.408,9.408,0,0,1,.66-1.42l-2.04-1.26a6.35,6.35,0,0,1-1.74.22h-4.06A21.548,21.548,0,0,1,230.38,7.16Zm27.68,3.24-2-1.64a6.46,6.46,0,0,1-1.86.22H243.1a19.2,19.2,0,0,1-2.3-.18v2.8c.42-.04,1.5-.14,2.3-.14h10.58a22.2,22.2,0,0,1-5.08,5.76c-1.26-1.1-2.58-2.18-3.38-2.78l-2.12,1.7a42.544,42.544,0,0,1,4.4,3.84,52.119,52.119,0,0,1,3.82,4.32l2.34-1.86c-.78-.94-1.96-2.24-3.1-3.38a33.321,33.321,0,0,0,6.82-7.82A6.973,6.973,0,0,1,258.06,10.4Zm2.18,4.82,1.26,2.52a40.075,40.075,0,0,0,7.06-2.88v6.4a22.4,22.4,0,0,1-.14,2.62h3.16a13.751,13.751,0,0,1-.18-2.62V13.18a36.684,36.684,0,0,0,5.38-4.34l-2.16-2.06a25.64,25.64,0,0,1-5.64,4.86A32.16,32.16,0,0,1,260.24,15.22Zm33.52-8.86-1.58.66c.36.54.76,1.24,1.1,1.88l-.24-.18a7.3,7.3,0,0,1-2.06.24h-7.06a22.344,22.344,0,0,1-2.36-.14v2.84c.42-.02,1.52-.14,2.36-.14h6.78a15.5,15.5,0,0,1-2.98,4.9,22.42,22.42,0,0,1-8.2,5.74l2.06,2.16a26.276,26.276,0,0,0,7.52-5.6,44.218,44.218,0,0,1,5.04,5.66l2.28-2a56.223,56.223,0,0,0-5.58-5.72,29.3,29.3,0,0,0,3.14-5.48,9.844,9.844,0,0,1,.7-1.26l-.46-.34,1.14-.48A26.8,26.8,0,0,0,293.76,6.36Zm2.52-.7-1.58.66a23.48,23.48,0,0,1,1.62,2.74l1.58-.68A26.948,26.948,0,0,0,296.28,5.66Z" transform="translate(424 1456)" fill="#295c9b"/>
  </g>
</svg>
