<svg xmlns="http://www.w3.org/2000/svg" width="24.373" height="8.527" viewBox="0 0 24.373 8.527">
  <g id="パス_42011" data-name="パス 42011" transform="translate(-793.281 -592.449)" fill="#9370db" stroke-miterlimit="10">
    <path d="M 810.7337036132812 600.7255859375 C 809.9718017578125 600.7255859375 809.1715698242188 600.7142944335938 808.3243408203125 600.702392578125 C 807.4036254882812 600.6893920898438 806.4515991210938 600.676025390625 805.4669799804688 600.676025390625 C 804.482666015625 600.676025390625 803.5306396484375 600.6893920898438 802.6099243164062 600.702392578125 C 801.7627563476562 600.7142944335938 800.9625244140625 600.7255859375 800.200927734375 600.7255859375 C 798.3971557617188 600.7255859375 796.552490234375 600.6718139648438 795.2789916992188 600.2815551757812 C 794.08642578125 599.9161376953125 793.531005859375 599.2915649414062 793.531005859375 598.3159790039062 C 793.531005859375 596.8502807617188 794.748291015625 595.4569702148438 796.9586791992188 594.3927612304688 C 799.2272338867188 593.3004760742188 802.2489013671875 592.698974609375 805.4669799804688 592.698974609375 C 808.685546875 592.698974609375 811.7074584960938 593.3004760742188 813.9761962890625 594.3927612304688 C 816.1866455078125 595.4569702148438 817.4039916992188 596.8502197265625 817.4039916992188 598.3159790039062 C 817.4039916992188 599.2914428710938 816.8484497070312 599.916015625 815.65576171875 600.281494140625 C 814.3820190429688 600.6717529296875 812.537353515625 600.7255859375 810.7337036132812 600.7255859375 Z" stroke="none"/>
    <path d="M 805.4669799804688 592.948974609375 C 802.2857055664062 592.948974609375 799.3025512695312 593.5416870117188 797.067138671875 594.6179809570312 C 794.9480590820312 595.6382446289062 793.781005859375 596.9515991210938 793.781005859375 598.3159790039062 C 793.781005859375 599.188720703125 794.2509155273438 599.705078125 795.3522338867188 600.0425415039062 C 796.5975952148438 600.4241333007812 798.5021362304688 600.4755859375 800.200927734375 600.4755859375 C 800.9607543945312 600.4755859375 801.7601318359375 600.46435546875 802.6063842773438 600.452392578125 C 803.5279541015625 600.439453125 804.4808959960938 600.426025390625 805.4669799804688 600.426025390625 C 806.4534301757812 600.426025390625 807.4064331054688 600.439453125 808.3280639648438 600.452392578125 C 809.17431640625 600.46435546875 809.9736328125 600.4755859375 810.7337036132812 600.4755859375 C 812.4324340820312 600.4755859375 814.3369140625 600.4241333007812 815.58251953125 600.04248046875 C 816.6840209960938 599.7049560546875 817.1539916992188 599.1885986328125 817.1539916992188 598.3159790039062 C 817.1539916992188 596.9515380859375 815.9869384765625 595.6382446289062 813.8677368164062 594.6179809570312 C 811.6321411132812 593.5416870117188 808.6487426757812 592.948974609375 805.4669799804688 592.948974609375 M 805.4669799804688 592.448974609375 C 812.197998046875 592.448974609375 817.6539916992188 595.0759887695312 817.6539916992188 598.3159790039062 C 817.6539916992188 601.5570068359375 812.197998046875 600.9260864257812 805.4669799804688 600.926025390625 C 798.7371215820312 600.926025390625 793.281005859375 601.5569458007812 793.281005859375 598.3159790039062 C 793.281005859375 595.0759887695312 798.7369995117188 592.448974609375 805.4669799804688 592.448974609375 Z" stroke="none" fill="#fff"/>
  </g>
</svg>
