<svg xmlns="http://www.w3.org/2000/svg" width="335" height="226.261" viewBox="0 0 335 226.261">
  <g id="グループ_7448" data-name="グループ 7448" transform="translate(-20 -1073.467)">
    <path id="パス_53974" data-name="パス 53974" d="M27.006-2h193.3a17.006,17.006,0,0,1,17.006,17.006v90.7a17.006,17.006,0,0,1-17.006,17.006H27.006A17.006,17.006,0,0,1,10,105.706v-90.7A17.006,17.006,0,0,1,27.006-2Z" transform="translate(117.684 1075.467)" fill="#36b5ff" opacity="0.312"/>
    <g id="グループ_7364" data-name="グループ 7364" transform="translate(20 1082.45)">
      <g id="楕円形_18" data-name="楕円形 18" transform="translate(0 0)" fill="#fff" stroke="#295c9b" stroke-width="2">
        <ellipse cx="41.746" cy="42.249" rx="41.746" ry="42.249" stroke="none"/>
        <ellipse cx="41.746" cy="42.249" rx="40.746" ry="41.249" fill="none"/>
      </g>
      <path id="パス_54003" data-name="パス 54003" d="M4.51-4.741l-1.254.319V-6H4.5V-7.227H3.256V-9.306H1.925v2.079H.506V-6H1.925V-4.1c-.561.143-1.1.264-1.54.352l.363,1.3,1.177-.3V-.572c0,.165-.055.22-.209.22s-.605,0-1.045-.022A4.545,4.545,0,0,1,1.056.858,3.618,3.618,0,0,0,2.75.616c.374-.2.506-.528.506-1.177V-3.113c.473-.121.946-.253,1.419-.385Zm6.116-3.74H4.675v1.309H7.458V-.781c0,.209-.088.275-.308.275S6.105-.5,5.423-.539A4.968,4.968,0,0,1,5.94.891,5.6,5.6,0,0,0,8.195.627C8.7.4,8.877.011,8.877-.759V-7.172h1.749Zm5.357-.286-1.562-.066a4.988,4.988,0,0,1-.055,1.111c-.022.132-.044.286-.066.451a15.722,15.722,0,0,1-2.156-.209v1.364c.561.055,1.21.088,1.9.1a17.6,17.6,0,0,1-1.254,3.7l1.3.462a4.065,4.065,0,0,1,.308-.484A3.806,3.806,0,0,1,17.446-3.63c1.078,0,1.639.55,1.639,1.21,0,1.617-2.431,1.914-4.84,1.518L14.63.517C18.183.9,20.57.011,20.57-2.464c0-1.408-1.177-2.354-2.959-2.354a5.36,5.36,0,0,0-2.728.693c.165-.539.341-1.243.5-1.914,1.474-.077,3.223-.286,4.367-.473l-.022-1.309a26.934,26.934,0,0,1-4.07.517c.022-.121.044-.242.066-.341C15.8-8.008,15.862-8.382,15.983-8.767Zm13.706,6.38V-.594H25.344V-2.387ZM24.057.968h1.287V.561h4.345V.968h1.342v-4.51H24.057Zm1.221-6.754a11.239,11.239,0,0,0,2.189-2.233,12.05,12.05,0,0,0,2.255,2.233Zm1.452-3.52A11.645,11.645,0,0,1,22.253-5.39a5.342,5.342,0,0,1,.825,1.067A15.326,15.326,0,0,0,24.783-5.4v.77h5.478V-5.39a13.194,13.194,0,0,0,1.683,1.045,6.394,6.394,0,0,1,.847-1.177,11.05,11.05,0,0,1-4.708-3.784Zm9.262,1.375c0,.121-.022.429-.044.847-.473.066-.957.121-1.276.143a9.451,9.451,0,0,1-.957.011l.143,1.408c.616-.088,1.463-.2,2-.264-.011.264-.033.528-.055.781-.627.924-1.727,2.376-2.354,3.146l.869,1.2c.385-.517.924-1.32,1.386-2.013-.011.924-.022,1.562-.044,2.42,0,.176-.011.572-.033.814h1.518c-.033-.253-.066-.649-.077-.847C37-1.32,37-2.244,37-3.146c0-.286.011-.6.022-.924a4.625,4.625,0,0,1,3.113-1.408,1.691,1.691,0,0,1,1.793,1.65c.011,1.716-1.375,2.508-3.311,2.794L39.281.3c2.728-.539,4.125-1.87,4.125-4.092a2.919,2.919,0,0,0-3.036-2.97,5.4,5.4,0,0,0-3.234,1.133c.011-.1.011-.209.022-.308.187-.286.407-.649.561-.847L37.312-7.3c.088-.693.176-1.254.242-1.562l-1.606-.055A6.073,6.073,0,0,1,35.992-7.931Zm16.423-.7H50.941a9.254,9.254,0,0,1,.077,1.012V-6.38c-1,.088-2.068.187-3,.275,0-.429.011-.8.011-1.056a7.287,7.287,0,0,1,.066-1.144H46.541a8.5,8.5,0,0,1,.088,1.221v1.111c-.352.033-.638.055-.836.077-.561.055-1.067.077-1.386.077l.154,1.408c.286-.044.968-.154,1.32-.2.187-.022.44-.044.737-.077,0,1.023,0,2.09.011,2.563.055,1.9.4,2.5,3.245,2.5A31.118,31.118,0,0,0,53.009.2l.055-1.5a22.162,22.162,0,0,1-3.289.275c-1.65,0-1.749-.242-1.771-1.32-.022-.473-.011-1.485,0-2.5.935-.1,2.013-.2,2.992-.275a12.12,12.12,0,0,1-.088,1.331c-.022.209-.121.253-.341.253a5.828,5.828,0,0,1-1.012-.143l-.033,1.221a16.649,16.649,0,0,0,1.661.165c.561,0,.836-.143.957-.726a19.3,19.3,0,0,0,.165-2.2c.319-.022.6-.033.847-.044.286-.011.869-.022,1.056-.011V-6.622c-.319.033-.748.055-1.056.077-.253.011-.528.033-.825.055.011-.363.011-.759.022-1.188C52.36-7.975,52.393-8.459,52.415-8.635Z" transform="translate(14.083 47.201)" fill="#295c9b"/>
    </g>
    <g id="グループ_7365" data-name="グループ 7365" transform="translate(139.705 1082.45)">
      <g id="楕円形_19" data-name="楕円形 19" transform="translate(0 0)" fill="#fff" stroke="#295c9b" stroke-width="2">
        <ellipse cx="41.746" cy="42.249" rx="41.746" ry="42.249" stroke="none"/>
        <ellipse cx="41.746" cy="42.249" rx="40.746" ry="41.249" fill="none"/>
      </g>
      <path id="パス_54002" data-name="パス 54002" d="M8.844-8.063A.638.638,0,0,1,9.482-8.7a.636.636,0,0,1,.627.638.634.634,0,0,1-.627.627A.636.636,0,0,1,8.844-8.063Zm-.682,0a1.218,1.218,0,0,0,.022.209,4.746,4.746,0,0,1-.627.044H2.464A12.248,12.248,0,0,1,1.155-7.9v1.551c.275-.022.8-.044,1.309-.044H7.579a6.913,6.913,0,0,1-1.287,3.1A7.211,7.211,0,0,1,1.98-.7l1.2,1.32A8.835,8.835,0,0,0,7.6-2.431a11.1,11.1,0,0,0,1.65-4c.033-.1.055-.209.088-.33a.627.627,0,0,0,.143.011,1.319,1.319,0,0,0,1.309-1.309,1.322,1.322,0,0,0-1.309-1.32A1.324,1.324,0,0,0,8.162-8.063Zm5.291-.374v1.419c.319-.022.792-.033,1.144-.033H18.81c.4,0,.913.011,1.21.033V-8.437a10.371,10.371,0,0,1-1.188.055H14.6A9.272,9.272,0,0,1,13.453-8.437Zm7.491,3.19-.979-.605a2.32,2.32,0,0,1-.8.11H13.717c-.341,0-.814-.033-1.276-.066v1.43c.462-.044,1.012-.055,1.276-.055H19.03A4.772,4.772,0,0,1,17.9-2.53,7.42,7.42,0,0,1,14.091-.605L15.18.638a8.237,8.237,0,0,0,3.927-2.376,7.905,7.905,0,0,0,1.628-3.047A4.075,4.075,0,0,1,20.944-5.247ZM24.651-8.36l-1.034,1.1a22.872,22.872,0,0,1,2.75,2.376l1.122-1.144A22.217,22.217,0,0,0,24.651-8.36ZM23.276-1.034,24.2.418a11.913,11.913,0,0,0,4.081-1.551,11.7,11.7,0,0,0,4.07-4.07l-.858-1.551a10.358,10.358,0,0,1-4,4.279A11.337,11.337,0,0,1,23.276-1.034ZM34.87-7.469v1.6c.374-.022.88-.044,1.3-.044h4.543c.385,0,.9.033,1.221.044v-1.6c-.308.033-.781.066-1.221.066H36.157C35.783-7.4,35.266-7.425,34.87-7.469ZM33.946-2.09V-.407c.407-.033.946-.066,1.375-.066h6.314a11.949,11.949,0,0,1,1.21.066V-2.09a11.149,11.149,0,0,1-1.21.066H35.321C34.892-2.024,34.375-2.057,33.946-2.09ZM46.651-8.36l-1.034,1.1a22.872,22.872,0,0,1,2.75,2.376l1.122-1.144A22.216,22.216,0,0,0,46.651-8.36ZM45.276-1.034,46.2.418a11.913,11.913,0,0,0,4.081-1.551,11.7,11.7,0,0,0,4.07-4.07l-.858-1.551a10.358,10.358,0,0,1-4,4.279A11.337,11.337,0,0,1,45.276-1.034ZM63.569-9.009l-.869.352a12.756,12.756,0,0,1,.8,1.419l-.077-.044a3.465,3.465,0,0,1-.957.132h-2.2c.011-.022.022-.033.033-.055a11.411,11.411,0,0,1,.671-1.122l-1.617-.528a4.977,4.977,0,0,1-.495,1.144,9.513,9.513,0,0,1-3.432,3.542l1.232.924a12.36,12.36,0,0,0,2.783-2.662h3.091a7.781,7.781,0,0,1-1.562,2.992A8.8,8.8,0,0,1,56.54-.187l1.3,1.166a10.245,10.245,0,0,0,4.433-3.113A11.168,11.168,0,0,0,64.2-5.8a4.4,4.4,0,0,1,.363-.792l-.935-.572.814-.341A13.984,13.984,0,0,0,63.569-9.009Zm1.3-.5L64-9.152a11.663,11.663,0,0,1,.891,1.518l.869-.374A15.706,15.706,0,0,0,64.867-9.5Z" transform="translate(6.035 46.195)" fill="#295c9b"/>
    </g>
    <g id="グループ_7366" data-name="グループ 7366" transform="translate(259.409 1082.45)">
      <g id="楕円形_20" data-name="楕円形 20" transform="translate(0 0)" fill="#fff" stroke="#295c9b" stroke-width="2">
        <ellipse cx="41.243" cy="42.249" rx="41.243" ry="42.249" stroke="none"/>
        <ellipse cx="41.243" cy="42.249" rx="40.243" ry="41.249" fill="none"/>
      </g>
      <path id="パス_54001" data-name="パス 54001" d="M-28.974-8.976h-3.135v.99h3.135Zm.319,1.474h-3.982v1.034h3.982Zm-1.364,5.588V-.649H-31.1V-1.914Zm1.089-1.034h-3.245V.8H-31.1V.374h2.167Zm-3.212-.539h3.234v-.979h-3.234Zm0-1.485h3.234v-1h-3.234Zm5.775,3.718V-3.74h.858V-4.862H-28.5V-3.74h.924v2.7c-.418.066-.8.132-1.133.176l.264,1.2c.946-.2,2.145-.451,3.278-.7l-.088-1.078Zm3.883-4.8V-7.238h-1.628q-.017-.726,0-1.485a7.535,7.535,0,0,1,.88,1.386l.946-.528a7.755,7.755,0,0,0-.946-1.342l-.88.451v-.55h-1.254c0,.726.011,1.408.022,2.068H-28.49V-6.05h3.179c.132,4.378.539,6.974,1.9,7.007.407.011.957-.374,1.243-2.167a4.118,4.118,0,0,1-.913-.781c-.044.825-.132,1.331-.275,1.331-.418-.033-.671-2.244-.748-5.39Zm3.256-3.223a11.444,11.444,0,0,1-2.508,4.114,8.939,8.939,0,0,1,.726,1.4c.22-.242.451-.517.682-.792v5.5h1.32V-6.589a17.135,17.135,0,0,0,1.056-2.288Zm7.887,2.992V-7.524h-4.268a13,13,0,0,0,.539-1.364l-1.265-.319A10.92,10.92,0,0,1-18.667-5.06a8.9,8.9,0,0,1,1,.913,12.214,12.214,0,0,0,1.441-2.134h.418V.957h1.342V-1.485h2.992V-2.7h-2.992V-3.938h2.849V-5.126h-2.849V-6.281ZM-8-9.3A11.531,11.531,0,0,1-10.791-5.06a8.288,8.288,0,0,1,.759,1.342,11.047,11.047,0,0,0,.88-.979V.946h1.3V-6.589a17.784,17.784,0,0,0,1.133-2.3ZM-.352-4.719V-6H-3.135V-9.1H-4.477V-6H-7.392v1.276h2.915v4h-2.64V.539H-.539V-.715h-2.6v-4ZM4.312-3.443c-.187-.3-.979-1.507-1.276-1.914v-.484h1.1v-1.21h-1.1V-9.317H1.848v2.266H.528v1.21H1.749A11,11,0,0,1,.275-2.156,6.276,6.276,0,0,1,.847-1a9.28,9.28,0,0,0,1-2.167V.946H3.036V-3.8c.242.473.473.968.605,1.287ZM6.3-2.079C5.368-1.595,4.4-1.1,3.751-.8L4.312.3c.7-.385,1.562-.869,2.332-1.32Zm-1.925-1.2A7.711,7.711,0,0,1,5.423-1.87l.935-.66A7.535,7.535,0,0,0,5.269-3.861Zm5.159-.616A8.658,8.658,0,0,1,8.47-2.706a5.971,5.971,0,0,1-.451-.968V-4.1h2.563V-5.17H8.019v-.484h2.134v-.979H8.019v-.44h2.365V-8.1H9.317c.176-.275.374-.605.572-.935l-1.3-.3c-.11.352-.33.858-.5,1.232H6.732a6.085,6.085,0,0,0-.627-1.21l-1.034.352A6.244,6.244,0,0,1,5.5-8.1H4.378v1.023H6.754v.44H4.675v.979H6.754v.484H4.169V-4.1H6.754V-.352c0,.132-.044.187-.176.187s-.561,0-.935-.022A4.069,4.069,0,0,1,6,.979,3.588,3.588,0,0,0,7.557.759c.352-.2.462-.506.462-1.1V-1.485A5.218,5.218,0,0,0,9.966.451a4.869,4.869,0,0,1,.825-1.056A4.6,4.6,0,0,1,9.075-1.848,17.706,17.706,0,0,0,10.527-3.2Zm5.137-4.29a8.284,8.284,0,0,0-1.991-1.078l-.715.968a7.554,7.554,0,0,1,1.947,1.188Zm-.6,2.926A7.675,7.675,0,0,0,12.034-6.3l-.693.979a8.543,8.543,0,0,1,1.98,1.155ZM13.585-3.52A33.139,33.139,0,0,1,11.638-.011L12.782.8c.616-1.078,1.254-2.343,1.8-3.509ZM18.161-6.4h1.364v1.991h-1.4c.022-.363.033-.715.033-1.078Zm3.465,3.223V-4.411H20.8V-7.634h-2.64V-9.306h-1.3v1.672H15.026V-6.4h1.837v.9q0,.544-.033,1.089H14.487v1.232h2.145A4.934,4.934,0,0,1,13.9.066,4.986,4.986,0,0,1,14.993.99a5.5,5.5,0,0,0,2.849-3.531A6.2,6.2,0,0,0,20.834.979a4.861,4.861,0,0,1,.913-1.144,5.158,5.158,0,0,1-2.805-3.014ZM24.09-6.963h6.765v1.507h1.353v-2.75H28.182v-1.1H26.8v1.1H22.8v2.75H24.09Zm4.081,4.8H31.2V-3.4H28.171V-4.774h2.354V-6.017h-6.05v1.243h2.343V-.891a2.961,2.961,0,0,1-1.5-1.727c.1-.44.176-.9.242-1.4L24.2-4.147c-.2,1.881-.737,3.4-1.925,4.279a8.01,8.01,0,0,1,1.078.891,5.513,5.513,0,0,0,1.463-2.079C25.828.506,27.335.836,29.359.836h2.75A4.892,4.892,0,0,1,32.571-.5c-.737.033-2.552.033-3.146.033a11.366,11.366,0,0,1-1.254-.066Z" transform="translate(38.03 47.201)" fill="#295c9b"/>
    </g>
    <g id="Icon_feather-arrow-right" data-name="Icon feather-arrow-right" transform="translate(108.078 1119.384)">
      <path id="パス_8904" data-name="パス 8904" d="M7.5,18H23.01" transform="translate(-7.5 -12.331)" fill="none" stroke="#295c9b" stroke-linecap="round" stroke-linejoin="round" stroke-width="3"/>
      <path id="パス_8905" data-name="パス 8905" d="M18,7.5l5.952,5.669L18,18.837" transform="translate(-8.442 -7.5)" fill="none" stroke="#295c9b" stroke-linecap="round" stroke-linejoin="round" stroke-width="3"/>
    </g>
    <g id="Icon_feather-arrow-right-2" data-name="Icon feather-arrow-right" transform="translate(246.546 1207.298) rotate(90)">
      <path id="パス_8904-2" data-name="パス 8904" d="M7.5,18H23.01" transform="translate(-7.5 -12.331)" fill="none" stroke="#295c9b" stroke-linecap="round" stroke-linejoin="round" stroke-width="3"/>
      <path id="パス_8905-2" data-name="パス 8905" d="M18,7.5l5.952,5.669L18,18.837" transform="translate(-8.442 -7.5)" fill="none" stroke="#295c9b" stroke-linecap="round" stroke-linejoin="round" stroke-width="3"/>
    </g>
    <g id="グループ_7367" data-name="グループ 7367" transform="translate(233.122 1119.384)">
      <g id="Icon_feather-arrow-right-3" data-name="Icon feather-arrow-right" transform="translate(0)">
        <path id="パス_8904-3" data-name="パス 8904" d="M7.5,18H23.01" transform="translate(-7.5 -12.331)" fill="none" stroke="#295c9b" stroke-linecap="round" stroke-linejoin="round" stroke-width="3"/>
        <path id="パス_8905-3" data-name="パス 8905" d="M18,7.5l5.952,5.669L18,18.837" transform="translate(-8.442 -7.5)" fill="none" stroke="#295c9b" stroke-linecap="round" stroke-linejoin="round" stroke-width="3"/>
      </g>
    </g>
    <text id="お客様ファーストでカスタマイズ" transform="translate(150.341 1170.138)" fill="#295c9b" font-size="12" font-family="NotoSansJP-Bold, Noto Sans JP" font-weight="700"><tspan x="0" y="14">お</tspan><tspan y="14">客様</tspan><tspan y="14">ファーストでカスタマイズ</tspan></text>
    <g id="グループ_7368" data-name="グループ 7368" transform="translate(137.693 1217.243)">
      <g id="グループ_7077" data-name="グループ 7077" transform="translate(0 0)">
        <g id="楕円形_21" data-name="楕円形 21" fill="#fff" stroke="#295c9b" stroke-width="2">
          <ellipse cx="41.746" cy="41.243" rx="41.746" ry="41.243" stroke="none"/>
          <ellipse cx="41.746" cy="41.243" rx="40.746" ry="40.243" fill="none"/>
        </g>
        <path id="パス_54000" data-name="パス 54000" d="M-19.569-3.146A16.321,16.321,0,0,0-16.423-4.4a14.085,14.085,0,0,0,3.036,1.254ZM-18.48-.583V-1.958H-14.5V-.583Zm3.74-6.556a8.214,8.214,0,0,1-1.683,1.3,8.961,8.961,0,0,1-1.683-1.3Zm1.221-1.188-.22.066h-3.487c.176-.242.33-.5.484-.737l-1.243-.429a8.865,8.865,0,0,1-3.5,3.267,8.128,8.128,0,0,1,.968.979,11.348,11.348,0,0,0,1.54-1.166,11.028,11.028,0,0,0,1.32,1.155A17.985,17.985,0,0,1-21.7-3.938a5.3,5.3,0,0,1,.638,1.177c.418-.088.836-.2,1.254-.319V.979h1.331V.572H-14.5V.935h1.408v-4c.341.088.671.176,1.023.242a6.21,6.21,0,0,1,.847-1.221A15.724,15.724,0,0,1-15.114-5.17a8.773,8.773,0,0,0,2.541-2.552Zm8.36,5.17v-.561h.979v.561Zm0-1.87h.979v.539h-.979Zm3.245,0v.539H-2.926v-.539Zm0,1.87H-2.926v-.561h1.012ZM-2.926-.264v-.5H-.737v-.99H-2.926v-.506H-.737V-5.94H-2.926v-.451H-.561V-7.4H-2.926v-.55a21.527,21.527,0,0,0,2.343-.3l-.748-.979a37.608,37.608,0,0,1-5.214.451,3.445,3.445,0,0,1,.286.979c.66-.011,1.364-.033,2.079-.066V-7.4H-6.655v1.012H-4.18v.451H-6.292v2.662c-.242-.286-1.1-1.177-1.386-1.419v-.319H-6.5V-6.237H-7.678V-7.788a11.47,11.47,0,0,0,1.309-.418l-.869-1a15.724,15.724,0,0,1-3.41.913,4.534,4.534,0,0,1,.363,1c.429-.055.88-.132,1.342-.22v1.276h-1.573v1.221h1.4a10.749,10.749,0,0,1-1.628,2.948,6.494,6.494,0,0,1,.6,1.243A9.775,9.775,0,0,0-8.943-3V.946h1.265v-4.29a9.639,9.639,0,0,1,.66,1.111l.726-.99v.968H-4.18v.506H-6.369v.99H-4.18v.5h-2.8V.77H-.33V-.264ZM4.026-8.976H.891v.99H4.026ZM4.345-7.5H.363v1.034H4.345ZM2.981-1.914V-.649H1.9V-1.914ZM4.07-2.948H.825V.8H1.9V.374H4.07ZM.858-3.487H4.092v-.979H.858Zm0-1.485H4.092v-1H.858ZM6.633-1.254V-3.74h.858V-4.862H4.5V-3.74h.924v2.7c-.418.066-.8.132-1.133.176L4.554.33C5.5.132,6.7-.121,7.832-.374L7.744-1.452Zm3.883-4.8V-7.238H8.888q-.017-.726,0-1.485a7.535,7.535,0,0,1,.88,1.386l.946-.528a7.755,7.755,0,0,0-.946-1.342l-.88.451v-.55H7.634c0,.726.011,1.408.022,2.068H4.51V-6.05H7.689c.132,4.378.539,6.974,1.9,7.007.407.011.957-.374,1.243-2.167a4.118,4.118,0,0,1-.913-.781C9.878-1.166,9.79-.66,9.647-.66,9.229-.693,8.976-2.9,8.9-6.05ZM11.9.341a5.235,5.235,0,0,0,.616-2.64l-.726-.143a5.111,5.111,0,0,1-.55,2.42Zm.715-2.552a13.021,13.021,0,0,1,.077,2.035l.594-.077a10.772,10.772,0,0,0-.11-2.013Zm.748-.055a8.274,8.274,0,0,1,.341,1.782l.572-.121a9.061,9.061,0,0,0-.363-1.771Zm1.386-1.661v-.682h.957V-5.6h-.957v-.66h.957v-.253a6.042,6.042,0,0,1,.517.935,6.471,6.471,0,0,0,.847-.627v.594h1.122v.594h-1.87v2.9h1.562A3.884,3.884,0,0,1,15.862-.044,27.022,27.022,0,0,0,16.126-3.5c.011-.143.011-.429.011-.429Zm-1.793-.682h.748v.682h-.748Zm.748-1.65v.66h-.748v-.66Zm0-1.6v.605h-.748v-.605ZM17.5-6.611a8.219,8.219,0,0,0,1.21-1.562A7.808,7.808,0,0,0,20-6.611ZM20.207-4.07v1.012h-.9a9.645,9.645,0,0,0,.044-.968V-4.07ZM17.391-3.058V-4.07h.8v.033a5.938,5.938,0,0,1-.066.979Zm3.927.946v-2.9H19.349V-5.61h1.1v-.605a5,5,0,0,0,.715.506,7.617,7.617,0,0,1,.649-1.122,7.1,7.1,0,0,1-2.585-2.475H18.106a7.022,7.022,0,0,1-2.4,2.64v-.583h-.957v-.605h1.177V-8.91H11.88v5.995h3.146c-.022.473-.044.88-.066,1.21a6.35,6.35,0,0,0-.374-.891l-.517.176A6.446,6.446,0,0,1,14.564-1l.352-.132a2.559,2.559,0,0,1-.187.957.329.329,0,0,1-.3.143,6.232,6.232,0,0,1-.671-.044A2.513,2.513,0,0,1,14.025.935,4.281,4.281,0,0,0,14.993.9a.873.873,0,0,0,.66-.385A.9.9,0,0,0,15.8.209a4.377,4.377,0,0,1,.638.77,4.831,4.831,0,0,0,2.442-2.343A4.767,4.767,0,0,0,20.933.946a5.089,5.089,0,0,1,.825-1.034A4.14,4.14,0,0,1,19.7-2.112ZM-.957,8.76H-2.145v4.378c0,.132-.044.176-.209.176s-.682.011-1.177-.011a4.058,4.058,0,0,1,.385,1.034,4.626,4.626,0,0,0,1.683-.176c.4-.165.506-.44.506-1Zm-2.387.363H-4.51v3.663h1.166Zm1.287,6.512a12.8,12.8,0,0,1-1.562.946,4.025,4.025,0,0,1-.781-.946Zm-7.458-4.972a4.278,4.278,0,0,0,.275-.44h1.045v.44Zm7.854,4.972h1.1V14.6h-4.29v-.572H-6.017a1.435,1.435,0,0,0,.517-.11c.286-.132.363-.33.363-.748V11.928H-7.084v-.385h2.123v-.88H-7.084v-.44h1.826V9.387H-7.084v-.7H-8.195v.7h-.627c.066-.154.121-.3.176-.451L-9.6,8.694a4.783,4.783,0,0,1-.858,1.584c.176.088.462.253.682.385h-.671v.88h2.255v.385H-10.01v2.156h.99V12.72h.825v1.606h1.111V12.72h.9v.451c0,.088-.033.121-.132.121-.077,0-.341,0-.594-.011a3.347,3.347,0,0,1,.319.759h.44V14.6h-4.279v1.034h3.212a12.4,12.4,0,0,1-3.4.924,5.631,5.631,0,0,1,.693.946,12.533,12.533,0,0,0,1.815-.462v.616c-.4.044-.77.088-1.089.121l.187,1.067c1.21-.176,2.849-.4,4.4-.616l-.044-1.023c-.737.1-1.485.2-2.2.286v-.957a8.283,8.283,0,0,0,1.3-.781,5.654,5.654,0,0,0,4.488,3.223,4.514,4.514,0,0,1,.715-1.045A7.434,7.434,0,0,1-2.739,17.2,14.829,14.829,0,0,0-.924,16.185Zm8.008-4.609v.935h-2.1a6.552,6.552,0,0,0,.726-.935Zm-2.926.935V13.05h7.073V11.961H7.645v-.935h2.4V9.915h-2.4V8.694h-1.3V9.915h-.77a8.01,8.01,0,0,0,.341-.847L4.7,8.793a6,6,0,0,1-1.562,2.552,8.15,8.15,0,0,1,1.089.616Zm2.156,2.728H8.47v1.122H5.577Zm4.257,2.167v-3.2H4.3v3.2ZM3.333,10.6A8.808,8.808,0,0,0,1.5,8.936l-.968.792A8.324,8.324,0,0,1,2.3,11.466Zm-.275,2.354H.517v1.2H1.782v2.321A14.446,14.446,0,0,1,.275,17.483l.638,1.364c.605-.462,1.089-.891,1.573-1.32a3.659,3.659,0,0,0,2.97,1.221c1.309.055,3.52.033,4.84-.033A6.851,6.851,0,0,1,10.7,17.4c-1.463.11-3.938.143-5.225.088a2.706,2.706,0,0,1-2.42-1.078ZM-10.219,33.118A8,8,0,0,1-10.8,35.67a6.466,6.466,0,0,1,1,.473,10.17,10.17,0,0,0,.66-2.838Zm8.426-3.333v3.08c-.33-.693-.781-1.5-1.21-2.211.044-.275.066-.572.1-.869Zm-3.377,0h1.078A6.564,6.564,0,0,1-5.17,33.371Zm4.554-1.2H-2.838c.022-.6.033-1.243.044-1.9H-4.015c0,.671-.011,1.3-.022,1.9H-6.325v3.6a11.149,11.149,0,0,0-.869-1.947l-.869.363c.132.242.264.517.385.792l-1.056.044c.693-.891,1.452-2,2.057-2.959l-1.067-.5a19.948,19.948,0,0,1-.979,1.782c-.11-.132-.231-.286-.374-.44.4-.616.836-1.463,1.232-2.211L-9,26.694a13.944,13.944,0,0,1-.8,1.914l-.253-.22-.627.891a10.794,10.794,0,0,1,1.3,1.5c-.176.253-.352.5-.517.7l-.792.033.11,1.133,1.6-.1v4.422h1.133v-4.5l.561-.044a5.274,5.274,0,0,1,.143.561l.825-.374v2.013a12.647,12.647,0,0,0-.583-1.6l-.924.286a13.016,13.016,0,0,1,.638,2.046l.869-.319v1.892H-5.17V33.943a2.759,2.759,0,0,1,.517.6,5.112,5.112,0,0,0,1.3-2.222A21.083,21.083,0,0,1-2.4,34.372l.6-.583v1.793c0,.154-.044.2-.187.2s-.66.011-1.111-.011a3.966,3.966,0,0,1,.363,1.2,3.639,3.639,0,0,0,1.639-.231c.374-.2.473-.528.473-1.122Zm8.041,1.265H3.575V28.366h3.85Zm1.331-2.739H2.31v3.982H8.756ZM3.674,33.261v1.892H2.035V33.261ZM.8,36.957H2.035v-.55H3.674V36.9H4.983v-4.9H.8Zm6.369-1.8V33.261H8.921v1.892ZM5.918,32.007v4.95H7.172v-.55H8.921v.506h1.32V32.007Z" transform="translate(41.112 26.077)" fill="#295c9b"/>
      </g>
      <g id="グループ_7078" data-name="グループ 7078" transform="translate(92.311 31.104)">
        <path id="パス_8778" data-name="パス 8778" d="M6360.139,1725.678h21.2" transform="translate(-6360.139 -1715.076)" fill="none" stroke="#295c9b" stroke-width="2"/>
        <path id="パス_8782" data-name="パス 8782" d="M0,0H21.2" transform="translate(10.602 0) rotate(90)" fill="none" stroke="#295c9b" stroke-width="2"/>
      </g>
      <g id="グループ_7079" data-name="グループ 7079" transform="translate(123.728 0)">
        <g id="グループ_5540" data-name="グループ 5540" transform="translate(0 0)">
          <circle id="楕円形_14" data-name="楕円形 14" cx="41.243" cy="41.243" r="41.243" transform="translate(0 0)" fill="#053d7e"/>
          <path id="パス_53999" data-name="パス 53999" d="M-14.63-9.478l-1.106-1.036a7.22,7.22,0,0,1-1.428.126H-24.71a11.1,11.1,0,0,1-1.708-.14v1.946c.658-.056,1.12-.1,1.708-.1h7.294a8.326,8.326,0,0,1-2.576,2.6l1.456,1.162a14.259,14.259,0,0,0,3.36-3.836A7.049,7.049,0,0,1-14.63-9.478Zm-5.712,1.89h-2.03a7.761,7.761,0,0,1,.1,1.26c0,2.3-.336,3.78-2.114,5.012a5.532,5.532,0,0,1-1.47.77L-24.22.784C-20.412-1.26-20.342-4.116-20.342-7.588ZM-1.554-9.324l-1.372-.882a4.693,4.693,0,0,1-1.106.112H-10.5c-.462,0-1.26-.07-1.68-.112v1.974c.364-.028,1.036-.056,1.666-.056H-3.99A8.862,8.862,0,0,1-5.628-4.34a9.313,9.313,0,0,1-5.488,3.29L-9.59.616A11.2,11.2,0,0,0-3.962-3.248a14.388,14.388,0,0,0,2.1-5.1A6.115,6.115,0,0,1-1.554-9.324Zm9.52-1.764-2.03-.63a5.794,5.794,0,0,1-.644,1.456A13,13,0,0,1,.84-5.6L2.352-4.438a16.838,16.838,0,0,0,3.7-3.626h4A9.937,9.937,0,0,1,8.512-4.97C7.63-5.558,6.748-6.132,6.006-6.552L4.76-5.278C5.474-4.83,6.4-4.2,7.308-3.528A11.893,11.893,0,0,1,2.17-.49L3.794.924A13.173,13.173,0,0,0,8.806-2.394c.574.462,1.092.9,1.47,1.246l1.33-1.582c-.406-.336-.952-.742-1.554-1.176a16.031,16.031,0,0,0,2.072-4.032,6.586,6.586,0,0,1,.462-.994l-1.428-.882A4.445,4.445,0,0,1,9.94-9.66H7.1A15.082,15.082,0,0,1,7.966-11.088Zm7.322,4.606v2.2c.518-.042,1.456-.07,2.254-.07H25.06c.588,0,1.3.056,1.638.07v-2.2c-.364.028-.98.084-1.638.084H17.542C16.814-6.4,15.792-6.44,15.288-6.482ZM-15.554,9.676l-1.372-.882a4.693,4.693,0,0,1-1.106.112H-24.5c-.462,0-1.26-.07-1.68-.112v1.974c.364-.028,1.036-.056,1.666-.056h6.524a8.862,8.862,0,0,1-1.638,3.948,9.313,9.313,0,0,1-5.488,3.29l1.526,1.666a11.2,11.2,0,0,0,5.628-3.864,14.388,14.388,0,0,0,2.1-5.1A6.115,6.115,0,0,1-15.554,9.676Zm10.976.616H-6.384c.056.378.1.826.112,1.162.014.266.028.546.028.854h-3.808a12.425,12.425,0,0,1-1.274-.084v1.722c.406-.028.91-.056,1.316-.056h3a13.748,13.748,0,0,1-4.9,3.766l1.218,1.4a15.914,15.914,0,0,0,4.522-3.682c.014,1.064.028,2.086.028,2.772,0,.28-.1.434-.364.434a12.789,12.789,0,0,1-1.61-.126l.112,1.6c.63.042,1.5.07,2.17.07A1.22,1.22,0,0,0-4.48,18.888c-.014-1.428-.056-3.332-.1-5H-2.9c.308,0,.742.014,1.078.028V12.224c-.252.028-.784.084-1.148.084H-4.62c0-.308-.014-.6-.014-.854A10.261,10.261,0,0,1-4.578,10.292ZM1.764,9.074c.028.392.028.966.028,1.358v6.846c0,.672-.042,1.89-.042,1.96H3.682c0-.042,0-.364-.014-.756h6.748c0,.406-.014.728-.014.756h1.932c0-.056-.028-1.4-.028-1.946v-6.86c0-.42,0-.938.028-1.358-.5.028-1.036.028-1.386.028h-7.7C2.87,9.1,2.338,9.088,1.764,9.074Zm1.9,1.806H10.43v5.81H3.668Zm11.62,1.638v2.2c.518-.042,1.456-.07,2.254-.07H25.06c.588,0,1.3.056,1.638.07v-2.2c-.364.028-.98.084-1.638.084H17.542C16.814,12.6,15.792,12.56,15.288,12.518Z" transform="translate(39.065 37.124)" fill="#fff"/>
        </g>
      </g>
    </g>
  </g>
</svg>
